Coordinates
version=1
nRows=24
nColumns=24
inDegrees=yes

Units are S.I. units (second, meters, Newtons, ...)
Angles are in degrees.

endheader
time	pelvis_tilt	pelvis_list	pelvis_rotation	pelvis_tx	pelvis_ty	pelvis_tz	hip_flexion_r	hip_adduction_r	hip_rotation_r	knee_angle_r	ankle_angle_r	subtalar_angle_r	mtp_angle_r	hip_flexion_l	hip_adduction_l	hip_rotation_l	knee_angle_l	ankle_angle_l	subtalar_angle_l	mtp_angle_l	lumbar_extension	lumbar_bending	lumbar_rotation
      0.98216667	     -0.04674489	      0.80414670	      6.80214647	     -0.13809976	      1.00404072	      0.27890290	    -17.36265846	      2.50527570	     -5.81607993	     -5.96770924	     10.84565854	     -5.67851922	     -4.64839274	     17.73125844	      3.58698920	      8.87110987	      2.75305220	      1.86573383	     -5.21092957	     -4.03935014	    -14.23857324	      5.28208888	      2.62817109
      0.98633333	     -0.06638044	      0.84573450	      6.79035653	     -0.13254126	      1.00321177	      0.27836213	    -17.38722901	      2.41221430	     -5.92183818	     -6.59229053	     11.00314998	     -5.43828769	     -4.35975466	     17.74807267	      3.70263978	      9.07533891	      2.76333788	      1.79418883	     -5.23462625	     -3.89426957	    -14.20112790	      5.22754395	      2.62921602
      0.99050000	     -0.07736134	      0.91348380	      6.77626747	     -0.12695994	      1.00243925	      0.27782358	    -17.40551231	      2.28948010	     -6.03004118	     -7.25712289	     11.15688289	     -5.20224894	     -4.03803013	     17.76079983	      3.84686312	      9.28326112	      2.67365785	      1.67552803	     -5.30968932	     -3.74694157	    -14.17921718	      5.13775224	      2.61345266
      0.99466667	     -0.09236214	      0.98307934	      6.76579854	     -0.12137179	      1.00169019	      0.27726495	    -17.40102329	      2.16095267	     -6.13529431	     -7.95676399	     11.26627127	     -4.98305622	     -3.65439444	     17.78893545	      3.99944387	      9.50957844	      2.48508731	      1.51444737	     -5.45224438	     -3.58535251	    -14.15200154	      5.04917469	      2.59563128
      0.99883333	     -0.09822185	      1.06874913	      6.74946974	     -0.11574934	      1.00100316	      0.27672868	    -17.39189613	      2.01551862	     -6.22074681	     -8.68816566	     11.34238524	     -4.80023937	     -3.26047005	     17.80995665	      4.16675617	      9.72362681	      2.21243237	      1.31628787	     -5.62598699	     -3.43383561	    -14.12846721	      4.93635895	      2.56429997
      1.00300000	     -0.06364657	      1.15940894	      6.75159860	     -0.11011002	      1.00041761	      0.27619960	    -17.45439937	      1.89069254	     -6.21808712	     -9.34553233	     11.25952487	     -4.89347674	     -3.19208006	     17.82073131	      4.34440578	      9.86982209	      1.79884432	      1.16138825	     -5.67716441	     -3.41009221	    -14.16681494	      4.82571429	      2.53873098
      1.00716667	     -0.11253368	      1.24539839	      6.75580191	     -0.10446801	      0.99972470	      0.27561750	    -17.35904608	      1.73982136	     -6.30083793	    -10.14841734	     11.22742440	     -4.81434163	      2.22779999	     17.85996848	      4.52697695	     10.33032155	      1.46601257	      0.64908269	     -6.35836055	     -1.61455396	    -14.09252934	      4.70425597	      2.49660953
      1.01133333	     -0.10736218	      1.38302563	      6.74497861	     -0.09876435	      0.99915596	      0.27505019	    -17.30656841	      1.53064179	     -6.43426342	    -11.00447302	     11.23138186	     -4.56884718	      2.32131112	     17.91407679	      4.76229356	     10.39394598	      0.89830687	      0.43534995	     -6.40756411	     -1.61653763	    -14.07475216	      4.51087132	      2.41839925
      1.01550000	     -0.13648443	      1.50292693	      6.74566488	     -0.09307231	      0.99858019	      0.27445503	    -17.20331138	      1.34282109	     -6.50835141	    -11.87337780	     11.16864446	     -4.46074302	      2.47491791	     17.99506356	      4.98978052	     10.59912523	      0.30945746	      0.09862397	     -6.70562120	     -1.61431685	    -14.03663980	      4.37922091	      2.36118775
      1.01966667	     -0.13550086	      1.62343154	      6.77390684	     -0.08736644	      0.99806448	      0.27382965	    -17.12588549	      1.16674541	     -6.60835789	    -12.75036582	     11.05349890	     -4.36993153	      2.83356169	     18.04258260	      5.22576967	     10.87840097	     -0.31860446	     -0.29866550	     -7.17053975	     -1.59863471	    -14.02038066	      4.21904191	      2.27744868
      1.02383333	     -0.14902190	      1.74646764	      6.77742001	     -0.08164601	      0.99757890	      0.27323358	    -17.00035643	      0.97889604	     -6.66089094	    -13.68346974	     10.87590136	     -4.35149272	      3.21960746	     18.10985718	      5.45995748	     11.07903628	     -0.98891106	     -0.72281468	     -7.56578276	     -1.58397823	    -13.98734871	      4.06845314	      2.20246118
      1.02800000	     -0.16271413	      1.88246535	      6.76535588	     -0.07588834	      0.99714501	      0.27265549	    -16.84613592	      0.77247259	     -6.69936143	    -14.67042589	     10.62623128	     -4.40369987	      3.55701819	     18.16214801	      5.70049417	     11.25416117	     -1.66089394	     -1.15772643	     -7.93095523	     -1.57567207	    -13.95276996	      3.90480490	      2.11432819
      1.03216667	     -0.12929469	      2.01534773	      6.79078399	     -0.07011435	      0.99680453	      0.27203345	    -16.75789481	      0.59075809	     -6.75689380	    -15.59457879	     10.15928786	     -4.60253391	      9.62191684	     18.17880321	      5.94961540	     11.47122478	     -2.39610117	     -1.59493703	     -8.41007400	     -1.37570092	    -13.97812524	      3.72493062	      2.06553753
      1.03633333	     -0.13955238	      2.14991554	      6.79448755	     -0.06435396	      0.99643916	      0.27141809	    -16.55684327	      0.38552355	     -6.81926890	    -16.66316144	      9.83096767	     -4.65157000	      9.68525254	     18.25731494	      6.20034440	     11.58840918	     -3.17929113	     -1.97819835	     -8.73488264	     -1.38759821	    -13.94933905	      3.56920225	      1.94243209
      1.04050000	     -0.13263786	      2.27912540	      6.80857712	     -0.05858203	      0.99613472	      0.27077980	    -16.35867511	      0.19121163	     -6.88694800	    -17.74570980	      9.41381172	     -4.74075222	      9.84785023	     18.31020787	      6.45018228	     11.76081380	     -3.96697601	     -2.40134760	     -9.21059105	     -1.40804822	    -13.93927315	      3.41660165	      1.83841794
      1.04466667	     -0.12497102	      2.40798774	      6.81647732	     -0.05280368	      0.99587197	      0.27015571	    -16.12992953	     -0.00437274	     -6.94426806	    -18.87267573	      8.91274167	     -4.88854176	     10.11026112	     18.36055985	      6.69702852	     11.91332939	     -4.76710960	     -2.79330887	     -9.66469178	     -1.43676540	    -13.92985343	      3.25803978	      1.74057599
      1.04883333	     -0.08226846	      2.55425099	      6.80917011	     -0.04701139	      0.99568887	      0.26954763	    -15.90833340	     -0.22274371	     -7.01315686	    -20.04133191	      8.29161679	     -5.15295280	     14.91247149	     18.35352958	      6.95273718	     12.06966752	     -5.54520879	     -3.13598498	    -10.14402020	     -1.85745112	    -13.96554127	      3.05331992	      1.68411108
      1.05300000	     -0.00473279	      2.70486367	      6.81225441	     -0.04119651	      0.99560911	      0.26891981	    -15.71004353	     -0.44159465	     -7.11135353	    -21.22406870	      7.58996728	     -5.32273830	     14.93839707	     18.33620700	      7.20984775	     12.09018694	     -6.39479056	     -3.35609573	    -10.36891315	     -1.86435058	    -14.04693767	      2.87676030	      1.58299922
      1.05716667	     -0.02957592	      2.81085464	      6.80055532	     -0.03542623	      0.99541321	      0.26827023	    -15.32621773	     -0.64157068	     -7.18733242	    -22.53005138	      6.88101965	     -5.52604433	     15.24093391	     18.40223177	      7.43681030	     12.26909911	     -7.18783792	     -3.62908802	    -10.90092774	     -1.90627095	    -13.98249204	      2.77302896	      1.43571051
      1.06133333	      0.00555828	      2.95395520	      6.78055930	     -0.02963673	      0.99533302	      0.26764788	    -14.98810564	     -0.87703275	     -7.28449310	    -23.86257327	      6.09494324	     -5.80585988	     15.43672442	     18.40803760	      7.68512805	     12.31406234	     -8.00279834	     -3.82093216	    -11.17802119	     -1.93758743	    -14.00452673	      2.61108423	      1.35712300
      1.06550000	      0.06940915	      3.09959816	      6.74733814	     -0.02385667	      0.99532704	      0.26703052	    -14.64678997	     -1.12676564	     -7.40116955	    -25.22925073	      5.18986678	     -6.11253102	     20.57120476	     18.36840528	      7.93412781	     12.40206887	     -8.80528310	     -3.92849632	    -11.59557039	     -2.70180848	    -14.07427716	      2.43068980	      1.28934112
      1.06966667	      0.17045541	      3.26407225	      6.70981071	     -0.01805852	      0.99541883	      0.26641426	    -14.32914989	     -1.39749222	     -7.52911002	    -26.61581463	      4.21125914	     -6.33835891	     20.58970552	     18.29044891	      8.19261735	     12.40949451	     -9.62445282	     -3.92839644	    -11.81823332	     -2.70428426	    -14.18816619	      2.23985121	      1.19386329
      1.07383333	      0.18450979	      3.37932778	      6.66035436	     -0.01230339	      0.99541434	      0.26580606	    -13.85156669	     -1.63537829	     -7.62952825	    -28.09295426	      3.17589534	     -6.71757613	     20.70025989	     18.29617554	      8.40761579	     12.45609302	    -10.41255561	     -3.91686160	    -12.11833902	     -2.72549372	    -14.17179675	      2.13197699	      1.09430479
      1.07800000	      0.23268116	      3.49956569	      6.60215043	     -0.00657081	      0.99547572	      0.26521423	    -13.38582619	     -1.88310655	     -7.73298008	    -29.59097827	      2.06689492	     -7.06395686	     20.91635122	     18.26888367	      8.62204814	     12.47613794	    -11.21938444	     -3.81058020	    -12.40304684	     -2.76995491	    -14.21796461	      1.99018107	      0.99982781
